<?xml version="1.0" encoding="UTF-8" standalone="no"?>
<svg
   height="24"
   viewBox="0 -960 960 960"
   width="24"
   version="1.1"
   id="svg1"
   xmlns:xlink="http://www.w3.org/1999/xlink"
   xmlns="http://www.w3.org/2000/svg"
   xmlns:svg="http://www.w3.org/2000/svg">
  <defs
     id="defs1">
    <linearGradient
       id="swatch2">
      <stop
         style="stop-color:#000000;stop-opacity:1;"
         offset="0"
         id="stop2" />
    </linearGradient>
  </defs>
  <path
     style="fill:#000000;fill-opacity:1;stroke-width:1.296"
     xlink:href="#path1"
     id="path3"
     d="m 340.03125,-825.77344 c -18.42965,0 -36.26163,4.26391 -52.51172,12.6211 -16.26517,8.36494 -29.98398,20.3794 -40.27734,35.35156 L 44.435547,-491.07617 a 19.183887,19.183887 0 0 0 0,22.15234 l 202.806643,286.72461 c 10.29336,14.97216 24.01217,26.98662 40.27734,35.35156 16.25009,8.35719 34.08207,12.6211 52.51172,12.6211 H 806.5918 c 30.21394,0 58.01849,-11.57904 79.46679,-33.02735 21.44831,-21.4483 33.02735,-49.25285 33.02735,-79.46679 v -466.5586 c 0,-30.21394 -11.57904,-58.01849 -33.02735,-79.46679 -21.4483,-21.44831 -49.25285,-33.02735 -79.46679,-33.02735 z m 9.90625,131.67578 h 437.47266 v 428.19532 H 349.9375 L 197.92773,-480 Z m 97.10352,8.94727 a 19.183887,19.183887 0 0 0 -8.59961,4.96289 l -65.31836,65.31836 a 19.183887,19.183887 0 0 0 0,27.12891 L 480.86523,-480 373.12305,-372.25977 a 19.183887,19.183887 0 0 0 0,27.12891 l 65.31836,65.31836 a 19.183887,19.183887 0 0 0 27.1289,0 L 573.3125,-387.55469 681.05273,-279.8125 a 19.183887,19.183887 0 0 0 27.12891,0 L 773.5,-345.13086 a 19.183887,19.183887 0 0 0 0,-27.12891 L 665.75977,-480 773.5,-587.74023 a 19.183887,19.183887 0 0 0 0,-27.12891 l -65.31836,-65.31836 a 19.183887,19.183887 0 0 0 -27.12891,0 L 573.3125,-572.44531 465.57031,-680.1875 a 19.183887,19.183887 0 0 0 -18.52929,-4.96289 z" />
  <path
     d="m 340.03204,-153.408 q -23.328,0 -43.74,-10.4976 -20.412,-10.4976 -33.2424,-29.16 L 60.096037,-480 263.04964,-766.9344 q 12.8304,-18.6624 33.2424,-29.16 20.412,-10.4976 43.74,-10.4976 h 466.56 q 38.4912,0 65.9016,27.4104 27.4104,27.4104 27.4104,65.9016 v 466.56 q 0,38.4912 -27.4104,65.9016 -27.4104,27.4104 -65.9016,27.4104 z m 466.56,-93.312 v -466.56 z m -466.56,0 h 466.56 v -466.56 h -466.56 L 174.40324,-480 Z m 111.9744,-46.656 121.3056,-121.3056 121.3056,121.3056 65.3184,-65.3184 L 638.63044,-480 l 121.3056,-121.3056 -65.3184,-65.3184 -121.3056,121.3056 -121.3056,-121.3056 -65.3184,65.3184 121.3056,121.3056 -121.3056,121.3056 z"
     id="path1"
     style="fill:#000000;fill-opacity:1;stroke-width:1.1664" />
  <path
     id="path2"
     style="display:inline;fill:#aac5e2;fill-opacity:1"
     d="m -57.535156,-169.93945 c -12.529401,0 -24.120639,2.78604 -35.048828,8.40625 -10.924096,5.61811 -19.687746,13.31161 -26.535156,23.27148 a 5.3599424,5.3599424 0 0 1 -0.041,0.0586 l -171.81054,242.90429 171.81054,242.9043 a 5.3599424,5.3599424 0 0 1 0.041,0.0586 c 6.84741,9.95987 15.61107,17.65339 26.535156,23.27149 10.928185,5.62022 22.519425,8.40625 35.048828,8.40625 H 342.46484 c 20.72778,0 37.93122,-7.15 52.71094,-21.92969 14.77964,-14.77969 21.92969,-31.98319 21.92969,-52.71094 V -95.298828 c 0,-20.727752 -7.15005,-37.931242 -21.92969,-52.710942 -14.77972,-14.77969 -31.98316,-21.92968 -52.71094,-21.92968 z m 0,69.28125 H 342.46484 a 5.3599424,5.3599424 0 0 1 5.35938,5.359372 V 304.70117 a 5.3599424,5.3599424 0 0 1 -5.35938,5.35938 H -57.535156 a 5.3599424,5.3599424 0 0 1 -4.369141,-2.25586 l -142.000003,-200 a 5.3599424,5.3599424 0 0 1 0,-6.20703 L -61.904297,-98.402344 a 5.3599424,5.3599424 0 0 1 4.369141,-2.255856 z m 96,52.937497 L -9.9570313,0.70117187 90.253906,100.91211 a 5.3599424,5.3599424 0 0 1 0,7.57812 L -9.9570313,208.70117 38.464844,257.12305 138.67578,156.91211 a 5.3599424,5.3599424 0 0 1 7.57813,0 L 246.46484,257.12305 294.88477,208.70117 194.67578,108.49023 a 5.3599424,5.3599424 0 0 1 0,-7.57812 L 294.88672,0.70117187 246.46484,-47.71875 146.25391,52.490234 a 5.3599424,5.3599424 0 0 1 -7.57813,0 z"
     transform="matrix(1.1664,0,0,1.1664,405.30302,-603.07226)" />
  <path
     id="path2-0"
     style="display:inline;fill:#729fcf;fill-opacity:1"
     d="m -57.535156,-153.80664 c -10.149155,0 -18.930685,2.12367 -27.671875,6.61914 -7.357985,3.78412 -13.060644,8.52035 -17.931639,14.60352 a 0.26488616,0.26488616 0 0 1 -0.21485,0.0254 c -0.8106,1.12896 -1.25616,1.74463 -2.38086,3.3164 -0.0446,0.0635 -0.079,0.10051 -0.0918,0.11914 -4.43273,6.48222 4.43797,-6.45496 -0.0117,0.0156 -4.44969,6.47058 4.45686,-6.44329 -0.01,0.0156 a 0.26488616,0.26488616 0 0 1 -0.002,0 c -0.038,0.0547 -0.0276,0.0399 -0.0293,0.043 -0.002,0.003 -0.0179,0.0282 -0.0566,0.084 a 0.26488616,0.26488616 0 0 1 -0.002,0.004 c -0.0334,0.0467 -0.0529,0.0722 -0.0547,0.0742 -0.002,0.002 0.0108,-0.0159 -0.0215,0.0293 l -165.19922,233.55859 156.88281,221.80078 c 0.0464,-0.0546 0.10145,-0.11951 0.10156,-0.11914 3.4e-4,0.001 -0.0117,-0.0333 -0.0137,-0.0371 -0.0154,-0.0301 0.0296,0.0487 0.0918,0.14258 0.48885,0.7379 2.87887,4.20587 8.1582,11.80078 l 0.002,0.004 c 0.005,0.007 0.005,0.007 0.01,0.0137 0.4177,0.57242 0.7062,0.96306 0.87305,1.18164 0.0828,0.10849 0.13847,0.17704 0.15625,0.19727 -0.005,-0.005 -0.0106,-0.0122 -0.041,-0.0293 -7.7e-4,-4.3e-4 -0.007,3.4e-4 -0.008,0 5.247056,7.27998 11.49504,12.66609 19.792969,16.93359 8.741179,4.49548 17.522713,6.61914 27.671875,6.61914 H 342.46484 c 17.06434,0 29.07637,-4.97875 41.30274,-17.20507 12.22629,-12.22634 17.20508,-24.23845 17.20508,-41.30274 V -95.298828 c 0,-17.064272 -4.97879,-29.076402 -17.20508,-41.302732 -12.22637,-12.22635 -24.2384,-17.20508 -41.30274,-17.20508 z m -0.927735,36.93164 c -0.0065,0.003 -0.01797,0.007 -0.04297,0.0273 -0.01103,0.009 -0.02711,0.024 -0.04297,0.0449 0.259709,0.007 0.54106,0.0117 1.013672,0.0117 H 342.46484 c 1.03782,1.2e-4 1.55833,-0.0254 1.80664,-0.0488 0.11896,-0.0112 0.17036,-0.0207 0.18164,-0.0234 4.3e-4,-2.3e-4 0.002,-0.002 0.002,-0.002 3.2e-4,-9e-5 0.006,6e-5 0.006,0 4.8e-4,-1.4e-4 -0.004,0.002 -0.004,0.002 0.002,0.005 0.10938,0.23828 0.10938,0.23828 0,0 0.15111,-0.20662 0.15429,-0.21094 -9e-5,-1e-5 -0.004,-0.004 -0.004,-0.004 2.1e-4,10e-5 0.006,0.002 0.006,0.002 0.009,0.004 0.0586,0.026 0.17382,0.0606 0.2382,0.0714 0.74193,0.19784 1.75977,0.40039 4.07124,0.81017 0.19826,-0.36413 4.0332,1.22461 0.95874,0.39718 1.4495,0.57167 1.6875,0.64453 0.11901,0.0364 0.17647,0.046 0.1836,0.0469 0.004,4.4e-4 -0.006,-0.002 -0.0352,0.002 -0.006,8.7e-4 -0.0153,0.004 -0.0234,0.006 9.6e-4,0.004 0.0645,0.25586 0.0645,0.25586 0,0 0.24412,-0.10355 0.24414,-0.10351 -0.001,-0.002 -0.003,-0.006 -0.004,-0.008 -0.0126,-0.0255 -0.02,-0.0322 -0.0176,-0.0293 0.005,0.006 0.0461,0.0483 0.14258,0.12695 0.19295,0.15739 0.6098,0.4664 1.47266,1.04297 0.86286,0.57658 1.3101,0.84479 1.52929,0.96289 0.1096,0.059 0.16465,0.0796 0.17188,0.082 0.004,0.001 -0.007,-0.002 -0.0352,-0.004 -0.001,-8e-5 -0.003,5e-5 -0.004,0 -6e-5,0.004 -0.008,0.26367 -0.008,0.26367 0,0 0.002,0 0.002,0 0,0 0.25789,-0.0231 0.26172,-0.0234 -0.001,-0.0126 -0.004,-0.0261 -0.006,-0.0352 -0.007,-0.0291 -0.0134,-0.0381 -0.0117,-0.0352 0.003,0.006 0.0342,0.0564 0.11328,0.15234 0.15823,0.19198 0.50839,0.57676 1.24219,1.31055 0.73379,0.73379 1.11857,1.08396 1.31054,1.24219 0.096,0.0791 0.14639,0.10992 0.15235,0.11328 0.003,0.002 -0.006,-0.004 -0.0352,-0.0117 -0.009,-0.002 -0.0226,-0.004 -0.0352,-0.006 -2.9e-4,0.004 -0.0234,0.26172 -0.0234,0.26172 0,0 0,0.002 0,0.002 0,0 0.25983,-0.008 0.26367,-0.008 -6e-5,-0.001 7e-5,-0.003 0,-0.004 -0.002,-0.0283 -0.005,-0.0388 -0.004,-0.0351 0.002,0.007 0.023,0.0623 0.082,0.17187 0.1181,0.2192 0.38631,0.66644 0.96289,1.5293 0.57658,0.86286 0.88558,1.2797 1.04297,1.47265 0.0787,0.0965 0.12126,0.13765 0.12696,0.14258 0.003,0.002 -0.004,-0.005 -0.0293,-0.0176 -0.002,-0.001 -0.005,-0.003 -0.008,-0.004 3e-5,1e-5 -0.10352,0.24414 -0.10352,0.24414 0,0 0.25226,0.0635 0.25586,0.0645 0.002,-0.008 0.005,-0.017 0.006,-0.0234 0.004,-0.0289 0.002,-0.0387 0.002,-0.0352 8.8e-4,0.007 0.0104,0.0646 0.0469,0.18359 0.0729,0.23801 0.24735,0.72877 0.64453,1.6875 1.58873,3.83496 0.41444,-0.038 1.22461,4.033206 0.81017,4.071204 0.4136,0.04037 0.41406,4.191406 V 304.70117 c -4.6e-4,4.15104 0.39611,0.1202 -0.41406,4.19141 -0.81017,4.07122 0.36412,0.19826 -1.22461,4.0332 -0.39718,0.95874 -0.57167,1.44949 -0.64453,1.6875 -0.0364,0.119 -0.046,0.17646 -0.0469,0.18359 -4.3e-4,0.004 0.002,-0.006 -0.002,-0.0351 -8.7e-4,-0.006 -0.004,-0.0153 -0.006,-0.0234 -0.004,9.5e-4 -0.25586,0.0645 -0.25586,0.0645 0,0 0.10355,0.24413 0.10352,0.24414 0.002,-0.001 0.006,-0.003 0.008,-0.004 0.0255,-0.0126 0.0322,-0.0201 0.0293,-0.0176 -0.006,0.005 -0.0483,0.0461 -0.12696,0.14258 -0.15739,0.19295 -0.46639,0.6098 -1.04297,1.47265 -0.57657,0.86287 -0.84479,1.31011 -0.96289,1.5293 -0.059,0.1096 -0.0796,0.16465 -0.082,0.17188 -0.001,0.004 0.002,-0.007 0.004,-0.0352 7e-5,-0.001 -6e-5,-0.003 0,-0.004 -0.004,-6e-5 -0.26367,-0.008 -0.26367,-0.008 0,0 0,0.002 0,0.002 0,0 0.0231,0.2579 0.0234,0.26172 0.0126,-0.001 0.0261,-0.004 0.0352,-0.006 0.0291,-0.007 0.0381,-0.0134 0.0352,-0.0117 -0.006,0.003 -0.0564,0.0342 -0.15235,0.11328 -0.19197,0.15823 -0.57675,0.50839 -1.31054,1.24218 -0.7338,0.7338 -1.08396,1.11858 -1.24219,1.31055 -0.0791,0.096 -0.10992,0.14638 -0.11328,0.15234 -0.002,0.003 0.004,-0.006 0.0117,-0.0351 0.002,-0.009 0.004,-0.0226 0.006,-0.0352 -0.004,-3e-4 -0.26172,-0.0234 -0.26172,-0.0234 0,0 -0.002,0 -0.002,0 0,0 0.008,0.25984 0.008,0.26368 0.001,-6e-5 0.003,7e-5 0.004,0 0.0283,-0.002 0.0388,-0.005 0.0352,-0.004 -0.007,0.002 -0.0623,0.023 -0.17188,0.082 -0.21919,0.1181 -0.66643,0.38631 -1.52929,0.96289 -0.86286,0.57658 -1.27971,0.88558 -1.47266,1.04297 -0.0965,0.0787 -0.13764,0.12126 -0.14258,0.12695 -0.002,0.003 0.005,-0.004 0.0176,-0.0293 0.001,-0.002 0.003,-0.005 0.004,-0.008 -2e-5,4e-5 -0.24414,-0.10351 -0.24414,-0.10351 0,0 -0.0635,0.25226 -0.0645,0.25586 0.008,0.002 0.017,0.005 0.0234,0.006 0.0289,0.004 0.0387,0.002 0.0352,0.002 -0.007,8.8e-4 -0.0646,0.0105 -0.1836,0.0469 -0.238,0.0728 -0.72876,0.24734 -1.6875,0.64453 -3.83494,1.58873 0.038,0.41444 -4.0332,1.22461 -4.07121,0.81016 -0.0404,0.41361 -4.19141,0.41406 H -57.535156 c -0.472612,-10e-6 -0.753963,0.005 -1.013672,0.0117 0.01586,0.0209 0.03194,0.036 0.04297,0.0449 0.02499,0.0202 0.03648,0.0244 0.04297,0.0273 0.02595,0.012 -0.01855,-0.006 -0.08398,-0.0195 -0.06108,-0.0129 -0.15659,-0.0279 -0.275391,-0.0469 -0.115424,0.005 -0.210983,0.0102 -0.271484,0.0156 -0.0666,0.006 -0.111207,0.0166 -0.08398,0.008 0.0068,-0.002 0.0177,-0.004 0.04492,-0.0215 0.0117,-0.007 0.02732,-0.0211 0.04492,-0.0391 -0.256907,-0.0376 -0.533785,-0.0768 -1.001953,-0.13281 -0.468694,-0.0561 -0.749193,-0.0833 -1.007812,-0.10743 0.01245,0.0206 0.02579,0.0372 0.03516,0.0469 0.02236,0.023 0.03296,0.0294 0.03906,0.0332 0.02441,0.015 -0.01482,-0.008 -0.07813,-0.0293 -0.05692,-0.0193 -0.148457,-0.0487 -0.257813,-0.0801 -0.122658,-0.01 -0.219827,-0.0156 -0.283203,-0.0176 -0.06689,-0.002 -0.111732,0.005 -0.08398,0 0.0069,-0.001 0.01793,-0.002 0.04687,-0.0156 0.01302,-0.006 0.03182,-0.0181 0.05273,-0.0351 -0.250785,-0.0679 -0.523034,-0.14035 -0.982422,-0.25196 -0.459169,-0.11155 -0.734347,-0.17188 -0.988281,-0.22656 0.0038,0.007 0.02244,0.0432 0.03125,0.0547 0.01958,0.0255 0.02956,0.0327 0.03516,0.0371 0.02238,0.0177 -0.01584,-0.0102 -0.07617,-0.0391 -0.05696,-0.0272 -0.144929,-0.0661 -0.257812,-0.11329 -0.112939,-0.0226 -0.207667,-0.0398 -0.267578,-0.0488 -0.06607,-0.01 -0.112821,-0.01 -0.08398,-0.0117 0.0072,-5.5e-4 0.02016,5.6e-4 0.05078,-0.01 0.01282,-0.004 0.03214,-0.0127 0.05273,-0.0254 -0.240735,-0.0971 -0.500021,-0.20231 -0.941406,-0.36719 -0.44164,-0.16496 -0.707628,-0.25727 -0.953125,-0.34179 0.0073,0.0235 0.01456,0.0429 0.02148,0.0547 0.01632,0.0278 0.02619,0.0359 0.03125,0.041 0.02026,0.0205 -0.01389,-0.0111 -0.07031,-0.0469 -0.05131,-0.0326 -0.133805,-0.0815 -0.234375,-0.13868 -0.115085,-0.0379 -0.207095,-0.0653 -0.267578,-0.082 -0.06449,-0.0178 -0.110396,-0.0228 -0.08203,-0.0215 0.0071,3.3e-4 0.01935,0.002 0.05078,-0.004 0.0143,-0.003 0.05174,-0.0188 0.05859,-0.0215 -0.227659,-0.12523 -0.474341,-0.26155 -0.894531,-0.47852 -0.420549,-0.21715 -0.674223,-0.33998 -0.908203,-0.45312 0.0045,0.0272 0.01168,0.0472 0.01758,0.0605 0.01296,0.0293 0.02101,0.0374 0.02539,0.043 0.01751,0.0224 -0.01262,-0.0124 -0.06445,-0.0547 -0.04845,-0.0395 -0.125584,-0.0984 -0.222656,-0.16992 -0.104409,-0.0487 -0.191924,-0.0884 -0.248047,-0.11133 -0.0619,-0.0253 -0.108332,-0.034 -0.08008,-0.0293 0.0071,0.001 0.01877,0.005 0.05078,0.002 0.01417,-0.001 0.03562,-0.005 0.06055,-0.0137 -0.211205,-0.15139 -0.440598,-0.31469 -0.832031,-0.58008 -0.390471,-0.26474 -0.62705,-0.41656 -0.845703,-0.55664 0.0015,0.025 0.0058,0.0454 0.0098,0.0586 0.0093,0.0308 0.01583,0.0408 0.01953,0.0469 0.0148,0.0245 -0.01024,-0.0144 -0.05664,-0.0625 -0.04274,-0.0443 -0.111346,-0.11059 -0.197266,-0.19141 -0.101495,-0.0631 -0.183955,-0.11238 -0.238281,-0.14258 -0.05845,-0.0325 -0.10356,-0.0471 -0.07617,-0.0391 0.0068,0.002 0.01869,0.007 0.05078,0.008 0.0138,5e-4 0.03588,-8.8e-4 0.06055,-0.006 -0.191602,-0.17533 -0.399409,-0.36632 -0.755859,-0.67579 -0.356192,-0.30924 -0.572996,-0.48728 -0.773437,-0.65234 -0.0015,0.0252 -4.75e-4,0.0469 0.002,0.0605 0.0056,0.0317 0.01268,0.0423 0.01563,0.0488 0.01178,0.0261 -0.01042,-0.0151 -0.05078,-0.0684 -0.03698,-0.0488 -0.09679,-0.12316 -0.171875,-0.21289 -0.09407,-0.0754 -0.17007,-0.13525 -0.220703,-0.17188 -0.05417,-0.0392 -0.09668,-0.06 -0.07031,-0.0488 0.0066,0.003 0.01897,0.009 0.05078,0.0137 0.0137,0.002 0.03537,0.004 0.06055,0.002 -0.169401,-0.19684 -0.352847,-0.41019 -0.669922,-0.75977 -0.317592,-0.35015 -0.51188,-0.55436 -0.691406,-0.74219 -0.0049,0.0259 -0.0067,0.0464 -0.0059,0.0605 0.0018,0.032 0.0076,0.044 0.0098,0.0508 0.0086,0.0272 -0.0073,-0.0165 -0.04102,-0.0742 -0.03088,-0.0528 -0.08272,-0.13456 -0.146484,-0.23242 -0.08332,-0.0849 -0.151748,-0.15329 -0.197266,-0.19531 -0.04914,-0.0454 -0.08916,-0.0709 -0.06445,-0.0566 0.0062,0.004 0.016,0.0108 0.04687,0.0195 0.01328,0.004 0.03544,0.007 0.06055,0.008 -0.144814,-0.21561 -0.302813,-0.44711 -0.576172,-0.83203 l -141.999996,-200 c -0.60012,-0.84527 -0.86645,-1.1701 -0.97266,-1.28515 0.001,0.004 -0.002,0.0257 -0.002,0.0273 8.5e-4,0.005 -0.002,-0.002 -0.006,-0.0156 -0.001,-0.004 -0.0257,-0.0535 -0.0273,-0.0586 -0.003,-0.003 -0.0324,-0.0442 -0.0352,-0.0469 -0.0102,-0.0101 -0.016,-0.015 -0.0117,-0.0117 0.001,9.7e-4 0.0221,0.007 0.0254,0.01 -0.0517,-0.14824 -0.21107,-0.534 -0.67383,-1.46094 -0.46309,-0.92759 -0.67831,-1.28981 -0.76562,-1.41992 3.9e-4,0.005 -0.006,0.0257 -0.006,0.0273 2e-5,0.005 -3e-5,-0.003 -0.002,-0.0176 -5.2e-4,-0.004 -0.0148,-0.0519 -0.0156,-0.0566 -0.003,-0.004 -0.0287,-0.0532 -0.0312,-0.0566 -0.009,-0.0115 -0.0135,-0.0156 -0.01,-0.0117 0.001,0.001 0.0218,0.0115 0.0254,0.0156 -0.0279,-0.15315 -0.12774,-0.563 -0.44336,-1.55273 -0.31513,-0.98823 -0.47096,-1.37802 -0.5371,-1.51953 -3.6e-4,0.005 -0.0115,0.0237 -0.0117,0.0254 -8e-4,0.005 -2.8e-4,-0.001 0,-0.0156 8e-5,-0.004 -0.008,-0.059 -0.008,-0.0644 -0.002,-0.004 -0.0177,-0.0513 -0.0195,-0.0547 -0.007,-0.0127 -0.0109,-0.0181 -0.008,-0.0137 9.7e-4,0.001 0.0191,0.0135 0.0215,0.0176 -0.004,-0.15636 -0.0397,-0.5746 -0.19921,-1.59961 -0.15937,-1.02429 -0.25324,-1.43342 -0.29688,-1.58398 -9.5e-4,0.004 -0.0132,0.0219 -0.0137,0.0234 -0.002,0.005 -5.3e-4,-0.003 0.002,-0.0176 6.8e-4,-0.004 0.001,-0.0538 0.002,-0.0586 -0.002,-0.005 -0.0104,-0.0585 -0.0117,-0.0625 -0.005,-0.0136 -0.008,-0.0204 -0.006,-0.0156 7.6e-4,0.002 0.0176,0.0168 0.0195,0.0215 0.02,-0.15476 0.0488,-0.57355 0.0488,-1.61133 0,-1.03778 -0.0288,-1.45657 -0.0488,-1.61133 -0.002,0.005 -0.0188,0.0199 -0.0195,0.0215 -0.002,0.005 0.001,-0.002 0.006,-0.0156 0.001,-0.004 0.0102,-0.0575 0.0117,-0.0625 -7.1e-4,-0.005 -0.001,-0.0548 -0.002,-0.0586 -0.002,-0.0141 -0.004,-0.0227 -0.002,-0.0176 4.8e-4,0.002 0.0127,0.0191 0.0137,0.0234 0.0436,-0.15057 0.13751,-0.55969 0.29688,-1.58399 0.15947,-1.02501 0.19508,-1.443247 0.19921,-1.599605 -0.002,0.0041 -0.0205,0.01621 -0.0215,0.01758 -0.003,0.0044 0.001,-0.001 0.008,-0.01367 0.002,-0.0034 0.0174,-0.05044 0.0195,-0.05469 6e-5,-0.0054 0.008,-0.06014 0.008,-0.06445 -2.8e-4,-0.01434 -8e-4,-0.02091 0,-0.01563 2.4e-4,0.0017 0.0114,0.02056 0.0117,0.02539 0.0661,-0.141515 0.22197,-0.531305 0.5371,-1.519531 0.31562,-0.989731 0.41551,-1.399582 0.44336,-1.552734 -0.004,0.0041 -0.0242,0.01434 -0.0254,0.01563 -0.004,0.0039 0.001,-1.94e-4 0.01,-0.01172 0.003,-0.0034 0.0282,-0.05222 0.0312,-0.05664 7.7e-4,-0.0047 0.0151,-0.05277 0.0156,-0.05664 0.002,-0.01422 0.002,-0.02291 0.002,-0.01758 -1e-5,0.0016 0.006,0.02265 0.006,0.02734 0.0873,-0.130108 0.30253,-0.492324 0.76562,-1.419922 0.46276,-0.926934 0.62214,-1.312699 0.67383,-1.460937 -0.003,0.003 -0.0241,0.0088 -0.0254,0.0098 -0.004,0.0033 0.002,-0.0017 0.0117,-0.01172 0.003,-0.0027 0.0319,-0.04343 0.0352,-0.04687 0.002,-0.0051 0.0261,-0.05448 0.0273,-0.05859 0.004,-0.01373 0.007,-0.02094 0.006,-0.01563 -2.6e-4,0.0016 0.003,0.02288 0.002,0.02734 0.10621,-0.115056 0.37254,-0.439889 0.97266,-1.285157 L -75.058594,-107.74219 c 0.273359,-0.38492 0.431358,-0.61641 0.576172,-0.83203 -0.02511,10e-4 -0.04727,0.004 -0.06055,0.008 -0.03088,0.009 -0.0407,0.016 -0.04687,0.0195 -0.02471,0.0142 0.01531,-0.0113 0.06445,-0.0566 0.04552,-0.042 0.113942,-0.11045 0.197266,-0.19531 0.06377,-0.0979 0.115608,-0.17958 0.146484,-0.23242 0.03374,-0.0577 0.04959,-0.10145 0.04102,-0.0742 -0.0021,0.007 -0.0079,0.0187 -0.0098,0.0508 -8.15e-4,0.0142 9.82e-4,0.0346 0.0059,0.0605 0.179526,-0.18783 0.373815,-0.39204 0.691406,-0.74219 0.317075,-0.34958 0.500521,-0.56292 0.669922,-0.75976 -0.02518,-0.002 -0.04685,-1.8e-4 -0.06055,0.002 -0.03181,0.005 -0.04223,0.0109 -0.04883,0.0137 -0.02638,0.0112 0.01419,-0.01 0.06836,-0.0488 0.05063,-0.0366 0.126638,-0.0965 0.220703,-0.17187 0.07508,-0.0897 0.134898,-0.16405 0.171875,-0.21289 0.04036,-0.0533 0.06256,-0.0944 0.05078,-0.0684 -0.0029,0.007 -0.01,0.0172 -0.01563,0.0488 -0.0024,0.0136 -0.0035,0.0353 -0.002,0.0605 0.200441,-0.16506 0.417246,-0.3431 0.773437,-0.65234 0.356449,-0.30947 0.564257,-0.50046 0.755859,-0.67578 -0.02467,-0.005 -0.04675,-0.006 -0.06055,-0.006 -0.03209,0.001 -0.04394,0.006 -0.05078,0.008 -0.02739,0.008 0.01772,-0.007 0.07617,-0.0391 0.05433,-0.0302 0.136786,-0.0795 0.238281,-0.14258 0.08592,-0.0808 0.154521,-0.14706 0.197266,-0.19141 0.0464,-0.0481 0.07144,-0.087 0.05664,-0.0625 -0.0037,0.006 -0.01019,0.0161 -0.01953,0.0469 -0.004,0.0132 -0.0082,0.0336 -0.0098,0.0586 0.218653,-0.14008 0.455232,-0.2919 0.845703,-0.55664 0.391432,-0.26539 0.620826,-0.42869 0.832031,-0.58008 -0.02492,-0.008 -0.04638,-0.0125 -0.06055,-0.0137 -0.03201,-0.003 -0.04372,7.9e-4 -0.05078,0.002 -0.02826,0.005 0.01818,-0.004 0.08008,-0.0293 0.05612,-0.0229 0.143638,-0.0626 0.248047,-0.11133 0.09707,-0.0715 0.174203,-0.1304 0.222656,-0.16992 0.05183,-0.0423 0.08196,-0.0771 0.06445,-0.0547 -0.0044,0.006 -0.01243,0.0136 -0.02539,0.043 -0.0059,0.0134 -0.01305,0.0333 -0.01758,0.0606 0.23398,-0.11315 0.487654,-0.23598 0.908203,-0.45313 0.42019,-0.21697 0.666873,-0.35328 0.894531,-0.47851 -0.0069,-0.003 -0.04429,-0.0186 -0.05859,-0.0215 -0.03143,-0.006 -0.04369,-0.004 -0.05078,-0.004 -0.02837,0.001 0.01755,-0.004 0.08203,-0.0215 0.06048,-0.0167 0.152493,-0.0441 0.267578,-0.082 0.10057,-0.0572 0.183066,-0.10609 0.234375,-0.13867 0.05642,-0.0358 0.09057,-0.0673 0.07031,-0.0469 -0.0051,0.005 -0.01493,0.0132 -0.03125,0.041 -0.0069,0.0118 -0.0142,0.0312 -0.02148,0.0547 0.245497,-0.0845 0.511485,-0.17683 0.953125,-0.3418 0.441385,-0.16488 0.700671,-0.27009 0.941406,-0.36719 -0.0206,-0.0127 -0.03991,-0.0211 -0.05273,-0.0254 -0.03063,-0.0103 -0.04357,-0.009 -0.05078,-0.01 -0.02884,-0.002 0.01792,-0.002 0.08398,-0.0117 0.05991,-0.009 0.154639,-0.0262 0.267578,-0.0488 0.112883,-0.0472 0.200849,-0.0861 0.257812,-0.11328 0.06034,-0.0288 0.09855,-0.0567 0.07617,-0.0391 -0.0056,0.004 -0.01557,0.0116 -0.03516,0.0371 -0.0088,0.0115 -0.02746,0.0474 -0.03125,0.0547 0.253933,-0.0547 0.529112,-0.11501 0.988281,-0.22656 0.459388,-0.11161 0.731637,-0.18401 0.982422,-0.25195 -0.02091,-0.0171 -0.03971,-0.0291 -0.05273,-0.0352 -0.02894,-0.0136 -0.03994,-0.0143 -0.04687,-0.0156 -0.02775,-0.005 0.0171,0.002 0.08398,0 0.06338,-0.002 0.160545,-0.008 0.283203,-0.0176 0.109357,-0.0313 0.200894,-0.0608 0.257813,-0.0801 0.06331,-0.0215 0.102533,-0.0443 0.07813,-0.0293 -0.0061,0.004 -0.0167,0.0102 -0.03906,0.0332 -0.0094,0.01 -0.02271,0.0263 -0.03516,0.0469 0.258619,-0.0242 0.539118,-0.0513 1.007812,-0.10742 0.468168,-0.0561 0.745046,-0.0952 1.001953,-0.13281 -0.0176,-0.018 -0.03323,-0.0317 -0.04492,-0.0391 -0.02722,-0.0171 -0.03812,-0.0193 -0.04492,-0.0215 -0.02722,-0.009 0.01738,0.002 0.08398,0.008 0.0605,0.005 0.156061,0.011 0.271484,0.0156 0.118801,-0.019 0.214314,-0.034 0.275391,-0.0469 0.06543,-0.0138 0.109931,-0.0315 0.08398,-0.0195 z m 402.867191,0.043 c -0.006,0.005 -0.0123,0.007 -0.0176,0.0117 -0.007,0.006 -0.006,0.008 -0.006,0.008 6e-5,-6e-5 0.0131,-0.011 0.0234,-0.0195 z m -97.93946,91.92578 -88.80273,88.804687 c -2.93519,2.935019 0.1936,0.367779 -3.25781,2.673829 -3.45141,2.306047 0.12008,0.395963 -3.71485,1.984375 -0.95874,0.397109 -1.42842,0.619605 -1.64843,0.736328 -0.11001,0.05836 -0.15996,0.09295 -0.16602,0.09766 -0.003,0.0024 0.006,-0.0032 0.0234,-0.02539 7.3e-4,-9.44e-4 0.001,-0.0029 0.002,-0.0039 -0.004,-0.0031 -0.21484,-0.152344 -0.21484,-0.152344 0,0 -0.10982,0.235125 -0.11133,0.238282 0.007,0.003 0.014,0.0079 0.0195,0.0098 0.0274,0.0094 0.0368,0.0081 0.0332,0.0078 -0.007,-5.37e-4 -0.0656,-7.84e-4 -0.18945,0.01172 -0.24769,0.02501 -0.76348,0.100295 -1.78125,0.302735 -4.07112,0.809765 -0.0405,0.414062 -4.19141,0.414062 -4.1509,0 -0.12028,0.395703 -4.1914,-0.414062 -1.01778,-0.20244 -1.53356,-0.277729 -1.78125,-0.302735 -0.12385,-0.0125 -0.18223,-0.01225 -0.18946,-0.01172 -0.004,2.68e-4 0.006,0.0016 0.0332,-0.0078 0.006,-0.0019 0.0128,-0.0067 0.0195,-0.0098 -0.002,-0.0032 -0.11133,-0.238282 -0.11133,-0.238282 0,0 -0.2105,0.149291 -0.21484,0.152344 7.6e-4,0.001 0.001,0.003 0.002,0.0039 0.0172,0.02214 0.0265,0.02774 0.0234,0.02539 -0.006,-0.0047 -0.056,-0.03929 -0.16602,-0.09766 -0.22001,-0.116723 -0.68969,-0.339219 -1.64844,-0.736328 -3.83492,-1.588412 -0.26345,0.321672 -3.71484,-1.984375 -3.45141,-2.30605 -0.32262,0.26119 -3.25781,-2.673829 L 38.464844,-24.904297 12.859375,0.70117187 101.66211,89.503906 c 2.93502,2.935191 0.36778,-0.1936 2.67383,3.257813 2.30605,3.451406 0.39596,-0.120081 1.98437,3.714843 0.39711,0.958747 0.61961,1.428422 0.73633,1.648438 0.0584,0.110008 0.093,0.159956 0.0977,0.166016 0.002,0.003 -0.003,-0.0063 -0.0254,-0.02344 -9.5e-4,-7.32e-4 -0.003,-0.0012 -0.004,-0.002 -0.003,0.0043 -0.15234,0.214844 -0.15234,0.214844 0,0 0.23512,0.10982 0.23828,0.111328 0.003,-0.0068 0.008,-0.01401 0.01,-0.01953 0.009,-0.02739 0.008,-0.03682 0.008,-0.0332 -5.4e-4,0.0072 -7.9e-4,0.06561 0.0117,0.189454 0.025,0.247688 0.1003,0.763473 0.30274,1.781254 0.80976,4.07111 0.41406,0.0405 0.41406,4.1914 0,4.1509 0.3957,0.12029 -0.41406,4.19141 -0.20244,1.01777 -0.27773,1.53356 -0.30274,1.78125 -0.0125,0.12384 -0.0122,0.18223 -0.0117,0.18945 2.6e-4,0.004 0.002,-0.006 -0.008,-0.0332 -0.002,-0.006 -0.007,-0.0127 -0.01,-0.0195 -0.003,0.001 -0.23828,0.11132 -0.23828,0.11133 0,0 0.14929,0.21049 0.15234,0.21484 0.001,-7.7e-4 0.003,-0.001 0.004,-0.002 0.0221,-0.0172 0.0277,-0.0265 0.0254,-0.0234 -0.005,0.006 -0.0393,0.056 -0.0977,0.16601 -0.11672,0.22002 -0.33922,0.6897 -0.73633,1.64844 -1.58841,3.83492 0.32168,0.26344 -1.98437,3.71485 -2.30605,3.45141 0.26119,0.32262 -2.67383,3.25781 l -88.802735,88.80273 25.605469,25.60547 88.802736,-88.80273 c 2.93519,-2.93502 -0.1936,-0.36778 3.25781,-2.67383 3.4514,-2.30604 -0.12008,-0.39596 3.71484,-1.98438 0.95875,-0.39711 1.42843,-0.6196 1.64844,-0.73633 0.11001,-0.0584 0.15996,-0.093 0.16602,-0.0977 0.003,-0.002 -0.006,0.003 -0.0234,0.0254 -7.3e-4,9.4e-4 -0.001,0.003 -0.002,0.004 0.004,0.003 0.21484,0.15234 0.21484,0.15234 0,0 0.10982,-0.23513 0.11133,-0.23828 -0.007,-0.003 -0.014,-0.008 -0.0195,-0.01 -0.0274,-0.009 -0.0368,-0.008 -0.0332,-0.008 0.007,5.4e-4 0.0656,7.8e-4 0.18946,-0.0117 0.24769,-0.025 0.76347,-0.10029 1.78125,-0.30273 4.07112,-0.80977 0.0405,-0.41407 4.1914,-0.41407 4.15092,0 0.12029,-0.3957 4.19141,0.41407 1.01777,0.20244 1.53356,0.27773 1.78125,0.30273 0.12384,0.0125 0.18223,0.0123 0.18945,0.0117 0.004,-2.7e-4 -0.006,-0.002 -0.0332,0.008 -0.006,0.002 -0.0128,0.007 -0.0195,0.01 0.002,0.003 0.11133,0.23828 0.11133,0.23828 0,0 0.21049,-0.14929 0.21484,-0.15234 -7.7e-4,-0.001 -0.001,-0.003 -0.002,-0.004 -0.0172,-0.0221 -0.0265,-0.0277 -0.0234,-0.0254 0.006,0.005 0.056,0.0393 0.16602,0.0977 0.22001,0.11673 0.68969,0.33922 1.64843,0.73633 3.83493,1.58842 0.26344,-0.32166 3.71485,1.98438 3.45141,2.30605 0.32262,-0.26119 3.25781,2.67383 l 88.80273,88.80273 25.60743,-25.60547 -88.80469,-88.80273 c -2.93502,-2.93519 -0.36777,0.1936 -2.67383,-3.25781 -2.30604,-3.45141 -0.39597,0.12007 -1.98438,-3.71485 -0.39711,-0.95874 -0.6196,-1.42842 -0.73632,-1.64844 -0.0584,-0.11 -0.093,-0.15995 -0.0977,-0.16601 -0.002,-0.003 0.003,0.006 0.0254,0.0234 9.5e-4,7.3e-4 0.003,0.001 0.004,0.002 0.003,-0.004 0.15234,-0.21484 0.15234,-0.21484 0,0 -0.23512,-0.10983 -0.23828,-0.11133 -0.003,0.007 -0.008,0.014 -0.01,0.0195 -0.009,0.0274 -0.008,0.0368 -0.008,0.0332 5.4e-4,-0.007 7.9e-4,-0.0656 -0.0117,-0.18945 -0.025,-0.24769 -0.10029,-0.76348 -0.30273,-1.78125 -0.80976,-4.07112 -0.41406,-0.0405 -0.41406,-4.19141 0,-4.1509 -0.3957,-0.12029 0.41406,-4.1914 0.20244,-1.017781 0.27773,-1.533566 0.30273,-1.781254 0.0125,-0.123845 0.0123,-0.182227 0.0117,-0.189454 -2.7e-4,-0.0036 -0.002,0.0058 0.008,0.0332 0.002,0.0055 0.007,0.01275 0.01,0.01953 0.003,-0.0015 0.23828,-0.111328 0.23828,-0.111328 0,0 -0.14929,-0.210497 -0.15234,-0.214844 -0.001,7.66e-4 -0.003,0.0012 -0.004,0.002 -0.0221,0.01717 -0.0277,0.02647 -0.0254,0.02344 0.005,-0.0061 0.0393,-0.05601 0.0977,-0.166016 0.11672,-0.220015 0.33921,-0.689691 0.73632,-1.648438 1.58841,-3.834924 -0.32166,-0.263436 1.98438,-3.714843 2.30606,-3.451414 -0.26119,-0.322622 2.67383,-3.257813 L 272.07031,0.70117187 Z M -217.95898,93.607422 c 9.5e-4,7.6e-5 -0.0403,0.0031 -0.0625,0.0059 0.008,0.02113 0.0259,0.05744 0.0254,0.05664 -5.8e-4,-9.09e-4 0.073,0.07474 0.0723,0.07422 -7.7e-4,-5.17e-4 0.10837,0.04311 0.10742,0.04297 -4.7e-4,-7e-5 0.0494,0.0019 0.0488,0.002 -4.6e-4,1.9e-5 0.0203,-0.0019 0.0332,-0.0039 -0.004,-0.01236 -0.0119,-0.03362 -0.0117,-0.0332 2.2e-4,4.64e-4 -0.0257,-0.0414 -0.0254,-0.04102 5.7e-4,7.68e-4 -0.0868,-0.07465 -0.0859,-0.07422 8.2e-4,4.34e-4 -0.10264,-0.02938 -0.10156,-0.0293 z m -1.48633,2.964844 c 9.6e-4,-7.6e-5 -0.041,0.0075 -0.0625,0.01367 0.0109,0.0193 0.0338,0.05347 0.0332,0.05273 -7.1e-4,-8.13e-4 0.0848,0.06485 0.084,0.06445 -8.4e-4,-3.96e-4 0.11228,0.02344 0.11132,0.02344 -4.7e-4,2e-6 0.0493,-0.004 0.0488,-0.0039 -4.8e-4,9.3e-5 0.0232,-0.0058 0.0352,-0.0098 -0.006,-0.01156 -0.0198,-0.03163 -0.0195,-0.03125 2.9e-4,4.22e-4 -0.0316,-0.03744 -0.0312,-0.03711 6.8e-4,6.67e-4 -0.0966,-0.05889 -0.0957,-0.05859 8.8e-4,3e-4 -0.10459,-0.01359 -0.10351,-0.01367 z m -0.90821,3.15625 c 9.2e-4,1.65e-4 -0.10652,0.0022 -0.10546,0.002 9.6e-4,-2.25e-4 -0.0408,0.01404 -0.0606,0.02344 0.0137,0.01743 0.0437,0.0475 0.043,0.04687 -8.3e-4,-6.9e-4 0.0927,0.04909 0.0918,0.04883 -8.8e-4,-2.59e-4 0.11618,0.0077 0.11524,0.0078 -4.7e-4,7.6e-5 0.0474,-0.01189 0.0469,-0.01172 -4.2e-4,1.57e-4 0.0195,-0.0098 0.0312,-0.01563 -0.008,-0.01045 -0.0218,-0.02572 -0.0215,-0.02539 3.6e-4,3.74e-4 -0.0375,-0.03348 -0.0371,-0.0332 7.8e-4,5.58e-4 -0.10443,-0.04313 -0.10352,-0.04297 z m -0.51953,3.259764 c 9.3e-4,2e-5 -0.10256,0.018 -0.10156,0.0176 9e-4,-3.7e-4 -0.0383,0.0208 -0.0566,0.0332 0.0156,0.0149 0.0516,0.0415 0.0508,0.041 -9.3e-4,-5.6e-4 0.10053,0.0333 0.0996,0.0332 -9.2e-4,-1.2e-4 0.11419,-0.0101 0.11328,-0.01 -4.5e-4,1.4e-4 0.0434,-0.0198 0.043,-0.0195 -4e-4,2.2e-4 0.0186,-0.012 0.0293,-0.0195 -0.01,-0.009 -0.0257,-0.0237 -0.0254,-0.0234 4e-4,3.1e-4 -0.0414,-0.0256 -0.041,-0.0254 8.5e-4,4.3e-4 -0.11225,-0.0274 -0.11133,-0.0273 z m -0.008,3.30078 c 9.2e-4,-1.2e-4 -0.10054,0.0338 -0.0996,0.0332 8.6e-4,-5.2e-4 -0.0351,0.0261 -0.0508,0.041 0.0183,0.0124 0.0575,0.0336 0.0566,0.0332 -10e-4,-4e-4 0.10249,0.0176 0.10156,0.0176 -9.2e-4,2e-5 0.11218,-0.0278 0.11133,-0.0273 -4.2e-4,2.1e-4 0.0414,-0.0257 0.041,-0.0254 -3.5e-4,2.7e-4 0.0158,-0.0143 0.0254,-0.0234 -0.0107,-0.008 -0.0297,-0.0198 -0.0293,-0.0195 4.5e-4,2.5e-4 -0.0434,-0.0197 -0.043,-0.0195 9.1e-4,2.9e-4 -0.1142,-0.01 -0.11328,-0.01 z m 0.61133,3.25586 c 9.4e-4,1.5e-4 -0.11612,0.008 -0.11524,0.008 8.9e-4,-2.5e-4 -0.0926,0.0495 -0.0918,0.0488 7.4e-4,-6.2e-4 -0.0292,0.0294 -0.043,0.0469 0.0197,0.009 0.0615,0.0237 0.0606,0.0234 -0.001,-2.5e-4 0.10638,0.002 0.10546,0.002 -9.1e-4,1.6e-4 0.1043,-0.0435 0.10352,-0.043 -3.9e-4,2.8e-4 0.0375,-0.0336 0.0371,-0.0332 -3.2e-4,3.3e-4 0.0135,-0.0149 0.0215,-0.0254 -0.0118,-0.006 -0.0317,-0.0158 -0.0312,-0.0156 4.9e-4,1.8e-4 -0.0473,-0.0118 -0.0469,-0.0117 z m 0.99023,3.13086 c 9.6e-4,0 -0.11216,0.0238 -0.11132,0.0234 8.3e-4,-4e-4 -0.0847,0.0653 -0.084,0.0645 6.4e-4,-7.3e-4 -0.0223,0.0334 -0.0332,0.0527 0.0215,0.006 0.0635,0.0137 0.0625,0.0137 -0.001,-9e-5 0.10439,-0.014 0.10351,-0.0137 -8.7e-4,3e-4 0.0964,-0.0593 0.0957,-0.0586 -3.4e-4,3.4e-4 0.0315,-0.0375 0.0312,-0.0371 -2.7e-4,3.8e-4 0.0133,-0.0197 0.0195,-0.0312 -0.0119,-0.004 -0.0356,-0.01 -0.0352,-0.01 5.1e-4,1e-4 -0.0493,-0.004 -0.0488,-0.004 z m 1.51172,2.9375 c 5.2e-4,2e-5 -0.0493,0.002 -0.0488,0.002 9.5e-4,-1.4e-4 -0.10819,0.0435 -0.10742,0.043 7.7e-4,-5.1e-4 -0.0728,0.0751 -0.0723,0.0742 5.1e-4,-8e-4 -0.0172,0.0355 -0.0254,0.0566 0.0223,0.003 0.0634,0.006 0.0625,0.006 -0.001,9e-5 0.10238,-0.0297 0.10156,-0.0293 -8.2e-4,4.3e-4 0.0865,-0.075 0.0859,-0.0742 -2.9e-4,3.8e-4 0.0256,-0.0415 0.0254,-0.041 -2e-4,4.1e-4 0.007,-0.0208 0.0117,-0.0332 -0.0129,-0.002 -0.0337,-0.004 -0.0332,-0.004 z"
     transform="matrix(1.1664,0,0,1.1664,403.75895,-604.38695)" />
</svg>
