<?xml version="1.0" encoding="UTF-8" standalone="no"?>
<svg
   id="svg6431"
   viewBox="0 0 64 64"
   height="64"
   width="64"
   version="1.1"
   xmlns="http://www.w3.org/2000/svg"
   xmlns:svg="http://www.w3.org/2000/svg">
  <defs
     id="defs6433">
    <linearGradient
       id="linearGradient4162"
       y2="0"
       gradientUnits="userSpaceOnUse"
       x2="32.127441"
       y1="29"
       x1="32.002441"
       gradientTransform="matrix(8,0,0,1,-239.35742,-2)">
      <stop
         id="stop5246"
         stop-color="#fff"
         offset="0" />
      <stop
         id="stop5248"
         stop-color="#fff"
         stop-opacity="0"
         offset="1" />
    </linearGradient>
  </defs>
  <path
     id="rect1"
     style="fill:#729fcf;fill-opacity:1;fill-rule:evenodd;stroke:#000000;stroke-width:4;stroke-dasharray:none;stroke-opacity:1;paint-order:markers stroke fill;stop-color:#000000"
     d="M 23 10 C 21.095143 9.9997418 19.284387 10.828127 18.039062 12.269531 L 3.7714844 28.789062 C 2.178086 30.63317 2.178086 33.36683 3.7714844 35.210938 L 18.039062 51.730469 C 19.284387 53.171873 21.095143 54.000258 23 54 L 56 54 C 58.761421 54 61 51.761421 61 49 L 61 15 C 61 12.238579 58.761421 10 56 10 L 23 10 z M 31 17 L 39 25 L 47 17 L 54 24 L 46 32 L 54 40 L 47 47 L 39 39 L 31 47 L 24 40 L 32 32 L 24 24 L 31 17 z " />
  <path
     id="path5"
     style="color:#000000;opacity:0.4;fill:#ffffff;fill-opacity:1;fill-rule:evenodd;-inkscape-stroke:none"
     d="M 23 10 C 21.095143 9.9997418 19.284387 10.828127 18.039062 12.269531 L 3.7714844 28.789062 C 2.178086 30.63317 2.178086 33.36683 3.7714844 35.210938 L 18.039062 51.730469 C 19.284387 53.171873 21.095143 54.000258 23 54 L 56 54 C 58.761421 54 61 51.761421 61 49 L 61 15 C 61 12.238579 58.761421 10 56 10 L 23 10 z M 23 12 L 56 12 C 57.680538 12 59 13.319462 59 15 L 59 49 C 59 50.680538 57.680538 52 56 52 L 23 52 C 21.675155 52.00018 20.41887 51.426337 19.552734 50.423828 L 5.2851562 33.904297 C 4.3310378 32.800055 4.3310378 31.199945 5.2851562 30.095703 L 19.552734 13.576172 C 20.41887 12.573663 21.675155 11.99982 23 12 z M 31 14 L 21.171875 24 L 29.171875 32 L 21.171875 40 L 31 49.828125 L 39 41.828125 L 47 49.828125 L 56.828125 40 L 48.828125 32 L 56.828125 24 L 47 14.171875 L 39 22.171875 L 31 14 z M 31 17 L 39 25 L 47 17 L 54 24 L 46 32 L 54 40 L 47 47 L 39 39 L 31 47 L 24 40 L 32 32 L 24 24 L 31 17 z " />
  <path
     id="path4160"
     style="opacity:0.3;fill:url(#linearGradient4162);stroke-width:1"
     d="M 23 10 C 21.095143 9.9997418 19.284387 10.828127 18.039062 12.269531 L 3.7714844 28.789062 C 3.458457 29.153114 3.2005042 29.5611 3.0058594 30 L 8.7382812 30 L 30 30 L 24 24 L 31 17 L 39 25 L 47 17 L 54 24 L 48 30 L 61 30 L 61 15 C 61 12.238579 58.761421 10 56 10 L 23 10 z " />
</svg>
