<?xml version="1.0" encoding="UTF-8" standalone="no"?>
<svg
   id="svg6431"
   viewBox="0 0 64 64"
   height="64"
   width="64"
   version="1.1"
   xmlns="http://www.w3.org/2000/svg"
   xmlns:svg="http://www.w3.org/2000/svg">
  <defs
     id="defs6433">
    <linearGradient
       id="linearGradient4162"
       y2="0"
       gradientUnits="userSpaceOnUse"
       x2="32.127441"
       y1="29"
       x1="32.002441"
       gradientTransform="matrix(8,0,0,1,-233.01953,2)">
      <stop
         id="stop5246"
         stop-color="#fff"
         offset="0" />
      <stop
         id="stop5248"
         stop-color="#fff"
         stop-opacity="0"
         offset="1" />
    </linearGradient>
  </defs>
  <path
     style="color:#000000;fill:#729fcf;fill-rule:evenodd;stroke-linecap:round;stroke-linejoin:round;paint-order:stroke fill markers;stroke:none;stroke-opacity:1;stroke-width:4;stroke-dasharray:none"
     d="m 59,2.84375 -8.769531,8.824219 C 45.22802,7.410317 38.97998,5.0166187 32.541016,5.0019531 32.01571,5.0007611 31.491222,5.0158449 30.964844,5.0449219 28.157254,5.2000098 25.344346,5.7886378 22.626953,6.8339844 11.754715,11.016398 4.6788613,21.640973 5.0117188,33.285156 5.3445722,44.929213 13.015971,55.132993 24.109375,58.6875 c 11.09344,3.55452 23.266592,-0.287844 30.304687,-9.570312 1.656797,-2.184462 1.220694,-5.351976 -0.964843,-7.007813 -2.184421,-1.655424 -5.348254,-1.221059 -7.003907,0.962891 -4.496103,5.929838 -12.198218,8.364518 -19.285156,6.09375 C 20.07327,46.89526 15.220446,40.440395 15.007812,33.001953 14.795176,25.563289 19.271319,18.839806 26.216797,16.167969 32.036376,13.929251 38.377593,15.114046 43.132812,18.810547 L 34,28 59,28.15625 Z"
     id="path12" />
  <path
     style="color:#000000;fill:#729fcf;fill-rule:evenodd;stroke-linecap:round;stroke-linejoin:round;paint-order:stroke fill markers;stroke:#000000;stroke-opacity:1;stroke-width:4;stroke-dasharray:none"
     d="m 59,2.84375 -8.769531,8.824219 C 45.22802,7.410317 38.97998,5.0166187 32.541016,5.0019531 32.01571,5.0007611 31.491222,5.0158449 30.964844,5.0449219 28.157254,5.2000098 25.344346,5.7886378 22.626953,6.8339844 11.754715,11.016398 4.6788613,21.640973 5.0117188,33.285156 5.3445722,44.929213 13.015971,55.132993 24.109375,58.6875 c 11.09344,3.55452 23.266592,-0.287844 30.304687,-9.570312 1.656797,-2.184462 1.220694,-5.351976 -0.964843,-7.007813 -2.184421,-1.655424 -5.348254,-1.221059 -7.003907,0.962891 -4.496103,5.929838 -12.198218,8.364518 -19.285156,6.09375 C 20.07327,46.89526 15.220446,40.440395 15.007812,33.001953 14.795176,25.563289 19.271319,18.839806 26.216797,16.167969 32.036376,13.929251 38.377593,15.114046 43.132812,18.810547 L 34,28 59,28.15625 Z"
     id="path9" />
  <path
     id="path4160"
     style="opacity:0.3;fill:url(#linearGradient4162);stroke-width:1"
     d="M 59 2.84375 L 50.230469 11.667969 C 45.228025 7.410321 38.979973 5.0166187 32.541016 5.0019531 C 32.01571 5.0007611 31.491221 5.0158449 30.964844 5.0449219 C 28.157257 5.2000096 25.344343 5.7886388 22.626953 6.8339844 C 11.754726 11.016394 4.6788616 21.640985 5.0117188 33.285156 C 5.0185538 33.524265 5.0338848 33.762151 5.046875 34 L 15.076172 34 C 15.047914 33.668738 15.017405 33.337513 15.007812 33.001953 C 14.795177 25.563297 19.271326 18.839803 26.216797 16.167969 C 32.03637 13.929253 38.377598 15.11405 43.132812 18.810547 L 34 28 L 59 28.15625 L 59 2.84375 z " />
  <path
     id="path11"
     style="color:#000000;fill:#ffffff;fill-rule:evenodd;stroke-linecap:round;stroke-linejoin:round;-inkscape-stroke:none;paint-order:fill markers stroke;opacity:0.4"
     d="M 59 2.84375 L 50.230469 11.667969 C 45.228025 7.410321 38.979973 5.0166187 32.541016 5.0019531 C 32.01571 5.0007611 31.491221 5.0158449 30.964844 5.0449219 C 28.157257 5.2000096 25.344343 5.7886388 22.626953 6.8339844 C 11.754726 11.016394 4.6788616 21.640985 5.0117188 33.285156 C 5.3445718 44.929202 13.015982 55.132997 24.109375 58.6875 C 35.202804 62.242016 47.375975 58.399646 54.414062 49.117188 C 56.070858 46.932728 55.634754 43.76521 53.449219 42.109375 C 51.2648 40.453953 48.100964 40.888318 46.445312 43.072266 C 41.949214 49.002098 34.247087 51.436781 27.160156 49.166016 C 20.073277 46.895262 15.220446 40.440388 15.007812 33.001953 C 14.795177 25.563297 19.271326 18.839803 26.216797 16.167969 C 32.03637 13.929253 38.377598 15.11405 43.132812 18.810547 L 34 28 L 59 28.15625 L 59 2.84375 z M 32.537109 7.0019531 C 38.483343 7.0154961 44.275339 9.2267032 48.933594 13.191406 A 2.0002 2.0002 0 0 0 51.648438 13.078125 L 57 7.6933594 L 57 26.144531 L 38.777344 26.029297 L 44.550781 20.220703 A 2.0002 2.0002 0 0 0 44.359375 17.232422 C 39.087451 13.134257 31.992689 11.802375 25.498047 14.300781 C 17.771966 17.272906 12.771287 24.784201 13.007812 33.058594 C 13.244336 41.332783 18.667738 48.544455 26.550781 51.070312 C 34.434297 53.596317 43.037819 50.87731 48.039062 44.28125 C 49.030815 42.973043 50.932881 42.710891 52.242188 43.703125 C 53.551235 44.694904 53.812469 46.600061 52.820312 47.908203 C 46.292495 56.517673 35.008447 60.080191 24.71875 56.783203 C 14.429393 53.486326 7.3204452 44.028552 7.0117188 33.228516 C 6.7029875 22.428326 13.26141 12.580473 23.345703 8.7011719 C 25.866241 7.731553 28.471445 7.1847897 31.074219 7.0410156 C 31.565575 7.0138737 32.053111 7.0008546 32.537109 7.0019531 z " />
</svg>
