<?xml version="1.0" encoding="UTF-8" standalone="no"?>
<svg
   id="svg6431"
   viewBox="0 0 64 64"
   height="64"
   width="64"
   version="1.1"
   xmlns:xlink="http://www.w3.org/1999/xlink"
   xmlns="http://www.w3.org/2000/svg"
   xmlns:svg="http://www.w3.org/2000/svg">
  <defs
     id="defs6433">
    <linearGradient
       id="linearGradient4161"
       y2="29"
       gradientUnits="userSpaceOnUse"
       x2="33"
       y1="32"
       x1="33"
       gradientTransform="matrix(1.18,0,0,1,-6.2600002,0)">
      <stop
         id="stop5260"
         stop-color="#fff"
         offset="0" />
      <stop
         id="stop5262"
         stop-color="#fff"
         stop-opacity="0"
         offset="1" />
    </linearGradient>
    <linearGradient
       id="linearGradient4698"
       y2="6.4991002"
       gradientUnits="userSpaceOnUse"
       x2="31.995001"
       y1="31.115"
       x1="31.993999">
      <stop
         id="stop4694"
         stop-color="#fff"
         offset="0" />
      <stop
         id="stop4696"
         stop-color="#fff"
         stop-opacity="0"
         offset="1" />
    </linearGradient>
    <linearGradient
       xlink:href="#linearGradient4161"
       id="linearGradient6"
       gradientUnits="userSpaceOnUse"
       gradientTransform="matrix(1.18,0,0,1,-6.2600002,-22)"
       x1="33"
       y1="32"
       x2="33"
       y2="29" />
    <linearGradient
       xlink:href="#linearGradient4161"
       id="linearGradient9"
       gradientUnits="userSpaceOnUse"
       gradientTransform="matrix(1.18,0,0,1,-6.2600002,22)"
       x1="33"
       y1="32"
       x2="33"
       y2="29" />
  </defs>
  <rect
     style="font-variation-settings:normal;opacity:1;vector-effect:none;fill:#729fcf;fill-opacity:1;fill-rule:evenodd;stroke:none;stroke-width:16.265;stroke-linecap:butt;stroke-linejoin:miter;stroke-miterlimit:4;stroke-dasharray:none;stroke-dashoffset:0;stroke-opacity:1;-inkscape-stroke:none;stop-color:#000000;stop-opacity:1"
     id="rect3"
     width="50"
     height="10"
     x="7"
     y="27"
     ry="5" />
  <path
     id="rect2"
     style="font-variation-settings:normal;opacity:0.4;vector-effect:none;fill:#ffffff;fill-opacity:1;fill-rule:evenodd;stroke:none;stroke-width:16.265;stroke-linecap:butt;stroke-linejoin:miter;stroke-miterlimit:4;stroke-dasharray:none;stroke-dashoffset:0;stroke-opacity:1;-inkscape-stroke:none;stop-color:#000000;stop-opacity:1"
     d="m 12,27 c -2.7699972,0 -5,2.230003 -5,5 0,2.769997 2.2300028,5 5,5 h 40 c 2.769997,0 5,-2.230003 5,-5 0,-2.769997 -2.230003,-5 -5,-5 z m 0,2 h 40 c 1.661998,0 3,1.338002 3,3 0,1.661998 -1.338002,3 -3,3 H 12 c -1.661998,0 -3,-1.338002 -3,-3 0,-1.661998 1.338002,-3 3,-3 z" />
  <path
     id="rect1"
     style="font-variation-settings:normal;opacity:1;vector-effect:none;fill:#000000;fill-opacity:1;fill-rule:evenodd;stroke:none;stroke-width:20;stroke-linecap:butt;stroke-linejoin:miter;stroke-miterlimit:4;stroke-dasharray:none;stroke-dashoffset:0;stroke-opacity:1;-inkscape-stroke:none;stop-color:#000000;stop-opacity:1"
     d="m 12,25 c -3.8779961,0 -7,3.122004 -7,7 0,3.877996 3.1220039,7 7,7 h 40 c 3.877996,0 7,-3.122004 7,-7 0,-3.877996 -3.122004,-7 -7,-7 z m 0,2 h 40 c 2.769994,0 5,2.230006 5,5 0,2.769994 -2.230006,5 -5,5 H 12 C 9.2300056,37 7,34.769994 7,32 7,29.230006 9.2300056,27 12,27 Z" />
  <path
     id="path4159"
     style="opacity:0.3;fill:url(#linearGradient4161);stroke-width:1.08628"
     d="m 12,27 c -2.7699972,0 -5,2.230003 -5,5 h 50 c 0,-2.769997 -2.230003,-5 -5,-5 z" />
  <rect
     style="font-variation-settings:normal;opacity:1;vector-effect:none;fill:#729fcf;fill-opacity:1;fill-rule:evenodd;stroke:none;stroke-width:16.265;stroke-linecap:butt;stroke-linejoin:miter;stroke-miterlimit:4;stroke-dasharray:none;stroke-dashoffset:0;stroke-opacity:1;-inkscape-stroke:none;stop-color:#000000;stop-opacity:1"
     id="rect4"
     width="50"
     height="10"
     x="7"
     y="5"
     ry="5" />
  <path
     id="path4"
     style="font-variation-settings:normal;opacity:0.4;vector-effect:none;fill:#ffffff;fill-opacity:1;fill-rule:evenodd;stroke:none;stroke-width:16.265;stroke-linecap:butt;stroke-linejoin:miter;stroke-miterlimit:4;stroke-dasharray:none;stroke-dashoffset:0;stroke-opacity:1;-inkscape-stroke:none;stop-color:#000000;stop-opacity:1"
     d="m 12,5 c -2.7699972,0 -5,2.230003 -5,5 0,2.769997 2.2300028,5 5,5 h 40 c 2.769997,0 5,-2.230003 5,-5 0,-2.769997 -2.230003,-5 -5,-5 z m 0,2 h 40 c 1.661998,0 3,1.338002 3,3 0,1.661998 -1.338002,3 -3,3 H 12 C 10.338002,13 9,11.661998 9,10 9,8.338002 10.338002,7 12,7 Z" />
  <path
     id="path5"
     style="font-variation-settings:normal;opacity:1;vector-effect:none;fill:#000000;fill-opacity:1;fill-rule:evenodd;stroke:none;stroke-width:20;stroke-linecap:butt;stroke-linejoin:miter;stroke-miterlimit:4;stroke-dasharray:none;stroke-dashoffset:0;stroke-opacity:1;-inkscape-stroke:none;stop-color:#000000;stop-opacity:1"
     d="m 12,3 c -3.8779961,0 -7,3.122004 -7,7 0,3.877996 3.1220039,7 7,7 h 40 c 3.877996,0 7,-3.122004 7,-7 0,-3.877996 -3.122004,-7 -7,-7 z m 0,2 h 40 c 2.769994,0 5,2.230006 5,5 0,2.769994 -2.230006,5 -5,5 H 12 C 9.2300056,15 7,12.769994 7,10 7,7.230006 9.2300056,5 12,5 Z" />
  <path
     id="path6"
     style="opacity:0.3;fill:url(#linearGradient6);stroke-width:1.08628"
     d="M 12,5 C 9.2300028,5 7,7.230003 7,10 H 57 C 57,7.230003 54.769997,5 52,5 Z" />
  <rect
     style="font-variation-settings:normal;opacity:1;vector-effect:none;fill:#729fcf;fill-opacity:1;fill-rule:evenodd;stroke:none;stroke-width:16.265;stroke-linecap:butt;stroke-linejoin:miter;stroke-miterlimit:4;stroke-dasharray:none;stroke-dashoffset:0;stroke-opacity:1;-inkscape-stroke:none;stop-color:#000000;stop-opacity:1"
     id="rect6"
     width="50"
     height="10"
     x="7"
     y="49"
     ry="5" />
  <path
     id="path7"
     style="font-variation-settings:normal;opacity:0.4;vector-effect:none;fill:#ffffff;fill-opacity:1;fill-rule:evenodd;stroke:none;stroke-width:16.265;stroke-linecap:butt;stroke-linejoin:miter;stroke-miterlimit:4;stroke-dasharray:none;stroke-dashoffset:0;stroke-opacity:1;-inkscape-stroke:none;stop-color:#000000;stop-opacity:1"
     d="m 12,49 c -2.7699972,0 -5,2.230003 -5,5 0,2.769997 2.2300028,5 5,5 h 40 c 2.769997,0 5,-2.230003 5,-5 0,-2.769997 -2.230003,-5 -5,-5 z m 0,2 h 40 c 1.661998,0 3,1.338002 3,3 0,1.661998 -1.338002,3 -3,3 H 12 c -1.661998,0 -3,-1.338002 -3,-3 0,-1.661998 1.338002,-3 3,-3 z" />
  <path
     id="path8"
     style="font-variation-settings:normal;opacity:1;vector-effect:none;fill:#000000;fill-opacity:1;fill-rule:evenodd;stroke:none;stroke-width:20;stroke-linecap:butt;stroke-linejoin:miter;stroke-miterlimit:4;stroke-dasharray:none;stroke-dashoffset:0;stroke-opacity:1;-inkscape-stroke:none;stop-color:#000000;stop-opacity:1"
     d="m 12,47 c -3.8779961,0 -7,3.122004 -7,7 0,3.877996 3.1220039,7 7,7 h 40 c 3.877996,0 7,-3.122004 7,-7 0,-3.877996 -3.122004,-7 -7,-7 z m 0,2 h 40 c 2.769994,0 5,2.230006 5,5 0,2.769994 -2.230006,5 -5,5 H 12 C 9.2300056,59 7,56.769994 7,54 7,51.230006 9.2300056,49 12,49 Z" />
  <path
     id="path9"
     style="opacity:0.3;fill:url(#linearGradient9);stroke-width:1.08628"
     d="m 12,49 c -2.7699972,0 -5,2.230003 -5,5 h 50 c 0,-2.769997 -2.230003,-5 -5,-5 z" />
</svg>
