<?xml version="1.0" encoding="UTF-8" standalone="no"?>
<svg
   id="svg2"
   height="64"
   width="64"
   version="1.1"
   viewBox="0 0 64 64"
   xml:space="preserve"
   xmlns="http://www.w3.org/2000/svg"
   xmlns:svg="http://www.w3.org/2000/svg"
   xmlns:rdf="http://www.w3.org/1999/02/22-rdf-syntax-ns#"
   xmlns:cc="http://creativecommons.org/ns#"
   xmlns:dc="http://purl.org/dc/elements/1.1/"><defs
     id="defs14"><linearGradient
       id="linearGradient4162"
       y2="0"
       gradientUnits="userSpaceOnUse"
       x2="32.127441"
       y1="29"
       x1="32.002441"
       gradientTransform="matrix(8,0,0,1,-234.08105,-16)"><stop
         id="stop5246"
         stop-color="#fff"
         offset="0" /><stop
         id="stop5248"
         stop-color="#fff"
         stop-opacity="0"
         offset="1" /></linearGradient></defs><metadata
     id="metadata4"><rdf:RDF><cc:Work
         rdf:about=""><dc:format>image/svg+xml</dc:format><dc:type
           rdf:resource="http://purl.org/dc/dcmitype/StillImage" /><dc:creator><cc:Agent><dc:title>Martin Ruskov</dc:title></cc:Agent></dc:creator><dc:source>http://commons.wikimedia.org/wiki/Tango_icon</dc:source><cc:license
           rdf:resource="http://creativecommons.org/licenses/by-sa/2.0/" /></cc:Work><cc:License
         rdf:about="http://creativecommons.org/licenses/by-sa/2.0/"><cc:permits
           rdf:resource="http://web.resource.org/cc/Reproduction" /><cc:permits
           rdf:resource="http://web.resource.org/cc/Distribution" /><cc:requires
           rdf:resource="http://web.resource.org/cc/Notice" /><cc:requires
           rdf:resource="http://web.resource.org/cc/Attribution" /><cc:permits
           rdf:resource="http://web.resource.org/cc/DerivativeWorks" /><cc:requires
           rdf:resource="http://web.resource.org/cc/ShareAlike" /></cc:License></rdf:RDF></metadata><g
     id="layer1"
     transform="translate(0,16)"><path
       style="fill:#8ab0d7;stroke-linecap:round;stroke-linejoin:round;stroke-dashoffset:30.2362;paint-order:markers stroke fill;stroke:#000000;stroke-width:4;stroke-dasharray:none"
       d="M 32,-12 C 16.536042,-12 4,0.53604261 4,16 4,31.463959 16.536042,44 32,44 47.463958,44 60,31.463959 60,16 60,0.53604261 47.463958,-12 32,-12 Z m 2.705207,6.3729166 a 4.8279935,4.8279936 0 0 1 4.827085,4.82708337 4.8279935,4.8279936 0 0 1 -4.827085,4.82890623 4.8279935,4.8279936 0 0 1 -4.827083,-4.82890623 4.8279935,4.8279936 0 0 1 4.827083,-4.82708337 z m -0.525,11.5591146 c 2.306749,-0.00635 6.013376,1.9725972 3.645834,7.9041678 -1.889632,4.734228 -10.849818,16.376828 -4.086978,16.262238 1.733053,-0.02936 4.421538,-1.843552 5.796874,-2.898437 2.271909,-1.742555 3.118888,1.679172 2.52474,2.676042 -2.011759,3.375354 -8.794486,7.947734 -13.376562,7.204166 -3.622448,-0.587841 -5.309203,-3.829646 -5.193491,-7.497656 0.197114,-6.248354 3.459126,-12.647598 6.3875,-15.897657 -1.713278,0.282653 -2.896819,0.703657 -7.727343,1.93047 -1.977509,0.50223 -1.93047,-1.93047 -1.930469,-1.93047 2.439362,-3.7732855 8.289623,-7.0664694 13.518751,-7.7236972 0.139128,-0.01749 0.287363,-0.028742 0.441144,-0.029167 z"
       id="path4" /><path
       id="path2"
       style="stroke-linecap:round;stroke-linejoin:round;stroke-dashoffset:30.2362;paint-order:markers stroke fill;fill:#ffffff;fill-opacity:1;opacity:0.4"
       d="M 32 -12 C 16.536042 -12 4 0.53604261 4 16 C 4 31.463959 16.536042 44 32 44 C 47.463958 44 60 31.463959 60 16 C 60 0.53604261 47.463958 -12 32 -12 z M 32 -10 C 46.383075 -10 58 1.6169252 58 16 C 58 30.383076 46.383076 42 32 42 C 17.616924 42 6 30.383076 6 16 C 6 1.6169252 17.616925 -10 32 -10 z M 34.705078 -7.6269531 C 30.958748 -7.6262467 27.879612 -4.547111 27.878906 -0.80078125 C 27.878481 1.4489989 29.059609 3.3622469 30.757812 4.609375 C 25.802048 5.8853193 21.026597 8.7548304 18.541016 12.599609 A 2.0002 2.0002 0 0 0 18.220703 13.646484 C 18.220703 13.646484 18.147983 14.566516 18.607422 15.630859 C 18.837142 16.163031 19.256109 16.821712 20.017578 17.259766 C 20.779048 17.697819 21.776673 17.774603 22.642578 17.554688 C 24.332851 17.125408 24.30518 17.151972 25.271484 16.894531 C 23.252945 20.462686 21.638428 24.883845 21.492188 29.519531 C 21.424087 31.678209 21.870718 33.798694 23.001953 35.564453 C 24.133188 37.330212 26.026706 38.675514 28.363281 39.054688 C 31.448156 39.555293 34.58648 38.361868 37.345703 36.75 C 40.104926 35.138132 42.470666 33.096028 43.779297 30.900391 C 44.292444 30.039425 44.281095 29.348862 44.230469 28.648438 C 44.179839 27.948013 44.011273 27.245078 43.623047 26.542969 C 43.23482 25.840859 42.530325 25.052889 41.429688 24.794922 C 40.329051 24.536955 39.18476 24.948752 38.318359 25.613281 C 37.690718 26.094683 36.732927 26.767458 35.800781 27.285156 C 34.868635 27.802855 33.891539 28.096451 33.705078 28.099609 C 33.276604 28.106909 33.282899 28.070533 33.273438 28.070312 C 33.259408 27.648653 33.600415 26.235165 34.349609 24.632812 C 35.874462 21.37151 38.544565 17.431814 39.683594 14.578125 C 41.028964 11.207473 40.751673 8.3317808 39.361328 6.4628906 C 38.915445 5.8635407 38.330923 5.5708488 37.779297 5.2011719 C 39.97538 4.0606859 41.5337 1.8262083 41.533203 -0.80078125 C 41.532497 -4.5471121 38.451409 -7.6262482 34.705078 -7.6269531 z M 34.705078 -5.6269531 A 4.8279935 4.8279936 0 0 1 39.533203 -0.80078125 A 4.8279935 4.8279936 0 0 1 34.705078 4.0292969 A 4.8279935 4.8279936 0 0 1 29.878906 -0.80078125 A 4.8279935 4.8279936 0 0 1 34.705078 -5.6269531 z M 34.179688 5.9316406 C 36.486437 5.9252906 40.193714 7.9043669 37.826172 13.835938 C 35.93654 18.570165 26.975441 30.212246 33.738281 30.097656 C 35.471334 30.068296 38.15982 28.254104 39.535156 27.199219 C 41.807065 25.456664 42.654695 28.880083 42.060547 29.876953 C 40.048788 33.252307 33.26567 37.823646 28.683594 37.080078 C 25.061146 36.492237 23.374522 33.250041 23.490234 29.582031 C 23.687348 23.333677 26.950532 16.935606 29.878906 13.685547 C 28.165628 13.9682 26.980915 14.388421 22.150391 15.615234 C 20.172882 16.117464 20.220702 13.685547 20.220703 13.685547 C 22.660065 9.9122614 28.509153 6.6181653 33.738281 5.9609375 C 33.877409 5.9434475 34.025906 5.9320652 34.179688 5.9316406 z " /><path
       id="path4160"
       style="opacity:0.3;fill:url(#linearGradient4162);stroke:none;stroke-width:1;stroke-opacity:1"
       d="M 32 -12 C 16.536042 -12 4 0.53604261 4 16 L 14.015625 16 L 28.103516 16 C 28.690446 15.121072 29.291389 14.337603 29.878906 13.685547 C 28.165628 13.9682 26.980915 14.388421 22.150391 15.615234 C 20.172882 16.117464 20.220702 13.685547 20.220703 13.685547 C 22.660065 9.9122614 28.509153 6.6181653 33.738281 5.9609375 C 33.877409 5.9434475 34.025906 5.9320652 34.179688 5.9316406 C 36.486437 5.9252906 40.193714 7.9043669 37.826172 13.835938 C 37.580343 14.451829 37.208409 15.191366 36.773438 16 L 60 16 C 60 0.53604261 47.463958 -12 32 -12 z M 34.705078 -5.6269531 A 4.8279935 4.8279936 0 0 1 39.533203 -0.80078125 A 4.8279935 4.8279936 0 0 1 34.705078 4.0292969 A 4.8279935 4.8279936 0 0 1 29.878906 -0.80078125 A 4.8279935 4.8279936 0 0 1 34.705078 -5.6269531 z " /></g></svg>
